<svg width="24" height="24" viewBox="0 0 24 24" fill="none" xmlns="http://www.w3.org/2000/svg">
<path d="M10.0097 15.8945C10.0881 15.8151 10.1946 15.7707 10.3055 15.7714L18.5948 15.8204C19.2895 15.8204 19.8469 15.2557 19.8469 14.5592V6.10203C19.8469 5.40548 19.2895 4.84081 18.602 4.84081H5.32375C4.63625 4.84081 4.07892 5.40548 4.07892 6.10203V14.5393C4.09114 15.2579 4.65815 15.8125 5.34555 15.8004L6.97627 15.7714C7.20825 15.7673 7.39848 15.9567 7.39848 16.1918V18.5401L10.0097 15.8945ZM6.56859 16.6196L5.36007 16.641C4.21441 16.6614 3.2694 15.7369 3.24934 14.5761C3.24916 14.5639 3.24906 11.7392 3.24902 6.10203C3.24902 4.94111 4.17791 4 5.32375 4H18.602C19.7479 4 20.6768 4.94111 20.6768 6.10203V14.5592C20.6768 15.7201 19.7479 16.6612 18.602 16.6612C18.598 16.6612 15.8886 16.6452 10.474 16.6132L7.27695 19.8523C7.01555 20.1171 6.56859 19.9296 6.56859 19.555V16.6196Z" fill="#2C9CDB"/>
<path d="M7.81387 9.88573C7.5847 9.88573 7.39893 9.69751 7.39893 9.46533C7.39893 9.23314 7.5847 9.04492 7.81387 9.04492H15.2829C15.5121 9.04492 15.6978 9.23314 15.6978 9.46533C15.6978 9.69751 15.5121 9.88573 15.2829 9.88573H7.81387ZM7.81387 12.4082C7.5847 12.4082 7.39893 12.2199 7.39893 11.9878C7.39893 11.7556 7.5847 11.5674 7.81387 11.5674H13.6231C13.8523 11.5674 14.0381 11.7556 14.0381 11.9878C14.0381 12.2199 13.8523 12.4082 13.6231 12.4082H7.81387Z" fill="#24BCE8"/>
</svg>
