<svg width="24" height="24" viewBox="0 0 24 24" fill="none" xmlns="http://www.w3.org/2000/svg">
<path fill-rule="evenodd" clip-rule="evenodd" d="M18 1H6C3.23858 1 1 3.23858 1 6V18C1 20.7614 3.23858 23 6 23H18C20.7614 23 23 20.7614 23 18V6C23 3.23858 20.7614 1 18 1ZM6 0C2.68629 0 0 2.68629 0 6V18C0 21.3137 2.68629 24 6 24H18C21.3137 24 24 21.3137 24 18V6C24 2.68629 21.3137 0 18 0H6Z" fill="#2C9CDB"/>
<path fill-rule="evenodd" clip-rule="evenodd" d="M16.4728 10.2614L15.0854 9.08789L11.2252 13.0386L9.59002 11.406L8.21826 12.5952L11.2422 15.6146L16.4728 10.2614Z" fill="#2C9CDB"/>
</svg>
