<svg width="24" height="24" viewBox="0 0 24 24" fill="none" xmlns="http://www.w3.org/2000/svg">
<circle cx="12" cy="12" r="12" fill="#24BCE8"/>
<path d="M11.0541 13.6818V13.1778C11.0541 12.7111 11.1521 12.3191 11.3481 12.0018C11.5441 11.6844 11.8801 11.3531 12.3561 11.0078C12.7761 10.7091 13.0747 10.4524 13.2521 10.2378C13.4387 10.0138 13.5321 9.75244 13.5321 9.45377C13.5321 9.1551 13.4201 8.9311 13.1961 8.78177C12.9814 8.6231 12.6781 8.54377 12.2861 8.54377C11.8941 8.54377 11.5067 8.60444 11.1241 8.72577C10.7414 8.8471 10.3494 9.01044 9.94805 9.21577L9.20605 7.71777C9.66339 7.46577 10.1581 7.26044 10.6901 7.10177C11.2221 6.9431 11.8054 6.86377 12.4401 6.86377C13.4107 6.86377 14.1621 7.0971 14.6941 7.56377C15.2354 8.03044 15.5061 8.6231 15.5061 9.34177C15.5061 9.72444 15.4454 10.0558 15.3241 10.3358C15.2027 10.6158 15.0207 10.8771 14.7781 11.1198C14.5354 11.3531 14.2321 11.6051 13.8681 11.8758C13.5974 12.0718 13.3874 12.2398 13.2381 12.3798C13.0887 12.5198 12.9861 12.6551 12.9301 12.7858C12.8834 12.9164 12.8601 13.0798 12.8601 13.2758V13.6818H11.0541ZM10.8301 16.0198C10.8301 15.5904 10.9467 15.2918 11.1801 15.1238C11.4134 14.9464 11.6981 14.8578 12.0341 14.8578C12.3607 14.8578 12.6407 14.9464 12.8741 15.1238C13.1074 15.2918 13.2241 15.5904 13.2241 16.0198C13.2241 16.4304 13.1074 16.7291 12.8741 16.9158C12.6407 17.0931 12.3607 17.1818 12.0341 17.1818C11.6981 17.1818 11.4134 17.0931 11.1801 16.9158C10.9467 16.7291 10.8301 16.4304 10.8301 16.0198Z" fill="white"/>
</svg>
