<svg width="24" height="24" viewBox="0 0 24 24" fill="none" xmlns="http://www.w3.org/2000/svg">
<circle cx="12" cy="12" r="12" fill="#3EC2BD"/>
<path d="M4.17823 19.7281C4.0678 19.7936 4.00007 19.9125 4.00005 20.0408C3.99897 20.1058 4.01529 20.1698 4.04732 20.2263C4.11346 20.3379 4.234 20.4058 4.36369 20.4045C4.42739 20.4049 4.49009 20.3886 4.54551 20.3572H4.5455C6.23938 19.3644 8.11515 18.7215 10.0619 18.4663C10.2131 18.4453 10.3352 18.332 10.3673 18.1827C10.4437 17.819 10.5055 17.4554 10.5564 17.0918C11.021 17.2723 11.5128 17.3731 12.011 17.3899C12.5091 17.3731 13.0009 17.2723 13.4655 17.0918C13.5164 17.4554 13.5746 17.819 13.651 18.1827C13.6836 18.3331 13.8074 18.4467 13.96 18.4663C15.9065 18.7226 17.782 19.3655 19.4764 20.3572C19.6451 20.4662 19.8702 20.4178 19.9792 20.2491C19.984 20.2417 19.9885 20.2341 19.9928 20.2263C20.0261 20.1702 20.0437 20.1061 20.0437 20.0408V20.0409C20.0429 19.9117 19.9737 19.7927 19.8619 19.7281C18.1609 18.732 16.2845 18.0716 14.3346 17.7827C14.2691 17.4554 14.2219 17.1209 14.1782 16.7899C15.3782 16.1718 16.491 15.0845 16.5928 13.5827C17.6451 12.9956 18.0223 11.6667 17.4353 10.6144C17.4238 10.5939 17.4121 10.5736 17.4001 10.5536C17.3746 10.5099 17.3455 10.4699 17.3164 10.4263V10.4263C17.3707 10.2435 17.4144 10.0577 17.4473 9.86994V9.86994C17.5155 9.52367 17.552 9.17192 17.5564 8.81903V8.81895C17.563 5.76231 15.0905 3.27906 12.0338 3.27247C11.9534 3.2723 11.873 3.27388 11.7927 3.27721C10.3574 3.33177 9.0003 3.94509 8.0109 4.9863C6.62703 6.43793 6.13479 8.52366 6.72362 10.4408C6.03331 11.4285 6.27436 12.7888 7.26201 13.4791C7.32292 13.5216 7.38596 13.5611 7.4509 13.5972C7.55271 15.099 8.66181 16.1863 9.86181 16.8045C9.82181 17.1354 9.7709 17.4699 9.70908 17.7972C7.75918 18.0822 5.88181 18.7376 4.17824 19.7281L4.17823 19.7281ZM8.54187 5.49176L8.54187 5.49176C9.39827 4.58984 10.5719 4.05647 11.8146 4.00448H11.8146C12.4799 3.97825 13.1434 4.08967 13.7637 4.33176C15.6187 5.04511 16.8391 6.83156 16.8291 8.81903V8.8191C16.8295 9.12923 16.7991 9.43863 16.7382 9.74273V9.74273C16.7 9.93191 16.6514 10.1189 16.5928 10.3027V10.3027C16.2826 10.2361 15.9785 10.1437 15.6837 10.0264C15.4432 9.93185 15.2098 9.82004 14.9855 9.69182V9.69182C14.3528 9.33352 13.7938 8.85845 13.3382 8.29182C13.2122 8.13542 12.9833 8.11078 12.8269 8.23677C12.7218 8.32149 12.6722 8.45749 12.6982 8.59V8.59C12.7838 9.01427 12.913 9.42857 13.0837 9.8263L13.16 9.99721L13.16 9.99721C12.4874 9.85994 11.8453 9.60116 11.2655 9.23357V9.23357C10.7429 8.90237 10.2764 8.48992 9.88368 8.01176C9.76388 7.86562 9.55211 7.83559 9.39641 7.94267C8.73249 8.40006 8.19065 9.01306 7.81823 9.72812C7.69855 9.96265 7.59646 10.2057 7.51277 10.4554L7.49096 10.3936C7.31069 9.88795 7.21606 9.3558 7.21096 8.81903V8.81901C7.20517 7.57977 7.68108 6.38675 8.53824 5.49174L8.54187 5.49176ZM8.17823 13.419C8.20582 13.2553 8.11903 13.0937 7.96732 13.0263C7.42334 12.7994 7.07008 12.2666 7.07278 11.6772V11.6772C7.07428 11.5632 7.08892 11.4497 7.11641 11.339C7.1855 11.4736 7.2546 11.6081 7.3346 11.7354C7.40118 11.8419 7.51805 11.9066 7.64369 11.9063H7.72732C7.87979 11.871 7.99257 11.7421 8.00732 11.5863C8.05809 11.0576 8.21124 10.5438 8.45823 10.0736V10.0736C8.7269 9.55992 9.09821 9.10692 9.54914 8.74267C10.6537 9.95256 12.1776 10.6963 13.811 10.8227H13.811C14.0117 10.8287 14.1793 10.6709 14.1854 10.4701C14.1875 10.4011 14.1698 10.3329 14.1346 10.2736C14.0473 10.1281 13.9673 9.97903 13.891 9.8263H13.891C14.1217 10.0066 14.3647 10.1707 14.6182 10.3172C14.8733 10.455 15.1368 10.5765 15.4073 10.6808H15.4073C15.7459 10.8148 16.095 10.9206 16.451 10.9972L16.7673 11.0554H16.8364C16.9275 11.2449 16.9747 11.4524 16.9746 11.6627V11.6627C16.9767 12.253 16.6218 12.786 16.0764 13.0118C15.9247 13.0792 15.8379 13.2408 15.8655 13.4045C15.8182 15.3827 13.32 16.6445 12.011 16.6445C10.8764 16.659 8.21095 15.5572 8.16368 13.419H8.17823Z" fill="white"/>
</svg>
