<svg width="24" height="24" viewBox="0 0 24 24" fill="none" xmlns="http://www.w3.org/2000/svg">
<circle cx="12" cy="12" r="12" fill="#F19B97"/>
<path d="M7.74151 4.70349H7.74151C6.58184 5.55851 5.85469 6.87843 5.75161 8.31554C5.72862 10.2168 5.09487 15.162 3.65334 16.1307C3.56475 16.1905 3.51084 16.2898 3.50885 16.3967C3.50676 16.5023 3.55564 16.6025 3.6402 16.6659C4.08435 16.9526 4.57744 17.1552 5.09487 17.2636C5.17852 17.2843 5.26698 17.2713 5.34115 17.2274C5.74869 16.994 6.1354 16.7259 6.497 16.4262V16.4262C6.44138 16.726 6.3567 17.0196 6.24416 17.303C6.20161 17.3923 6.20161 17.496 6.24416 17.5854C6.28778 17.6734 6.36849 17.7372 6.46416 17.7594C6.55611 17.7857 6.98298 18.0057 7.29493 18.1633L7.58718 18.3143C6.44024 18.6611 5.3381 19.1416 4.30351 19.746C4.20252 19.8043 4.14003 19.9118 4.13932 20.0284C4.1383 20.0875 4.15426 20.1456 4.18529 20.1959C4.24442 20.2956 4.35176 20.3568 4.46769 20.3568C4.52521 20.3572 4.58183 20.3425 4.63187 20.3141H4.63188C6.32076 19.3243 8.19105 18.6834 10.132 18.4293C10.2699 18.4116 10.3817 18.309 10.4111 18.1731V18.1731C10.4933 17.6598 10.5482 17.1424 10.5753 16.6232C10.5753 16.5576 10.5753 16.4919 10.5753 16.4295C11.0352 16.6468 11.5378 16.759 12.0464 16.7579C12.5541 16.7549 13.0566 16.6557 13.5274 16.4656C13.5865 17.0435 13.6653 17.7791 13.7474 18.16C13.7768 18.2958 13.8886 18.3984 14.0265 18.4161C15.9797 18.67 17.8616 19.3156 19.5595 20.3141C19.6095 20.3425 19.6661 20.3572 19.7237 20.3568C19.8396 20.3568 19.9469 20.2956 20.0061 20.1959C20.0371 20.1456 20.053 20.0875 20.052 20.0284V20.0284C20.0513 19.9118 19.9888 19.8043 19.8878 19.746C19.2059 19.3486 18.4945 19.0039 17.76 18.7149C18.1409 18.114 18.7944 17.7298 19.6547 17.2373C19.9207 17.083 20.1998 16.9089 20.4953 16.7382H20.4953C20.5789 16.6873 20.6355 16.6019 20.6497 16.505C20.6586 16.4005 20.6171 16.298 20.538 16.2292C19.0374 14.896 18.975 12.8109 18.8798 10.5944L18.8798 10.5945C18.8616 9.61866 18.7838 8.64487 18.6466 7.67857C18.4135 6.18778 17.4941 4.93999 15.9934 4.06653V4.06653C14.9576 3.47096 13.8046 3.10789 12.6145 3.00254C11.4846 2.9596 10.403 3.4631 9.70845 4.35542C9.03403 4.16561 8.30986 4.29376 7.74153 4.70349L7.74151 4.70349ZM7.81047 10.4959C8.1629 9.88138 8.63927 9.34687 9.20932 8.9263C9.69749 9.4487 10.2568 9.89972 10.8709 10.266C11.9376 10.9058 13.1379 11.2902 14.3778 11.3891H14.4008C14.5167 11.389 14.6241 11.3279 14.6832 11.2282C14.7484 11.1225 14.7484 10.9891 14.6832 10.8834C14.5078 10.6096 14.353 10.3231 14.2202 10.0263C14.2106 10.0097 14.2029 9.99212 14.1972 9.97379H14.1972C14.5842 10.2938 15.0022 10.5743 15.445 10.8111L15.445 10.8111C15.7373 10.9663 16.0389 11.1034 16.348 11.2216C16.2692 13.0046 15.2283 14.8862 13.6981 15.6972C13.2012 15.9678 12.645 16.1111 12.0793 16.1143C9.7971 16.1143 7.84002 13.0407 7.81047 10.4959V10.4959ZM9.70515 5.06141C9.853 5.12291 10.0236 5.0688 10.109 4.93335V4.93335C10.662 4.11476 11.5941 3.63449 12.5817 3.65928C14.1513 3.74466 17.5499 4.86439 18.0063 7.7803V7.7803C18.136 8.72513 18.2083 9.67695 18.223 10.6305C18.3051 12.8273 18.3773 14.8993 19.786 16.4L19.3263 16.6692C18.3642 17.2242 17.5925 17.6773 17.1361 18.4851C16.2397 18.1766 15.3162 17.9534 14.3778 17.8185C14.3089 17.3883 14.2432 16.7382 14.1939 16.2817V16.1734C15.8313 15.1391 16.8722 13.3812 16.9916 11.4482C17.2084 11.5106 17.4251 11.5664 17.6484 11.6091C17.6701 11.6123 17.6923 11.6123 17.714 11.6091C17.8954 11.6272 18.0571 11.4949 18.0752 11.3135C18.0934 11.1322 17.9611 10.9705 17.7797 10.9523V10.9523C17.3888 10.8766 17.0054 10.7668 16.6337 10.624L16.6337 10.624C16.3381 10.5128 16.0506 10.3811 15.7734 10.2299C14.9976 9.81545 14.3069 9.25845 13.7375 8.58808C13.6403 8.47399 13.4782 8.44021 13.3435 8.50599C13.2075 8.57216 13.1343 8.72265 13.1662 8.87048C13.2724 9.36169 13.4298 9.84043 13.6357 10.2989C13.6915 10.4204 13.7506 10.5419 13.813 10.6601H13.813C12.8983 10.514 12.02 10.1941 11.2255 9.71767C10.5841 9.33262 10.0087 8.84701 9.52127 8.27942V8.27942C9.41323 8.1542 9.22892 8.12887 9.09111 8.22031C8.30024 8.73623 7.64843 9.43878 7.19314 10.266C7.16706 10.3167 7.15461 10.3733 7.15702 10.4302C7.15702 10.4302 7.15702 10.4466 7.15702 10.4532C7.15702 12.5318 8.30959 14.9223 9.98427 16.0814C9.98427 16.2292 9.958 16.4098 9.94486 16.5904C9.91203 17.0009 9.87591 17.4901 9.82994 17.8284C9.40963 17.8907 8.99588 17.9728 8.58542 18.0681C8.47378 18.0352 7.95824 17.7725 7.61674 17.5985C7.32777 17.4507 7.12747 17.3489 6.98299 17.2701V17.2701C7.17193 16.6084 7.30376 15.9317 7.37703 15.2474C7.40242 15.066 7.27598 14.8984 7.09463 14.873C6.91328 14.8477 6.74568 14.9741 6.72029 15.1554C6.66119 15.5068 5.8731 16.1701 5.13099 16.62H5.13099C4.88233 16.553 4.63872 16.4685 4.40202 16.3671C5.98147 14.6399 6.39521 9.60274 6.41163 8.35166V8.35166C6.50509 7.12573 7.12259 5.99963 8.10601 5.26172V5.26172C8.56736 4.91992 9.17375 4.84396 9.70516 5.06141L9.70515 5.06141Z" fill="white"/>
</svg>
