<svg width="24" height="24" viewBox="0 0 24 24" fill="none" xmlns="http://www.w3.org/2000/svg">
<path fill-rule="evenodd" clip-rule="evenodd" d="M13.8331 5.76382C12.5997 5.25293 11.2425 5.11925 9.93314 5.3797C8.62377 5.64015 7.42104 6.28303 6.47703 7.22703C5.53303 8.17104 4.89015 9.37377 4.6297 10.6831C4.36925 11.9925 4.50293 13.3497 5.01382 14.5831C5.52471 15.8165 6.38987 16.8707 7.4999 17.6124C8.60994 18.3541 9.91498 18.75 11.25 18.75C11.6642 18.75 12 19.0858 12 19.5C12 19.9142 11.6642 20.25 11.25 20.25C9.61831 20.25 8.02325 19.7661 6.66655 18.8596C5.30984 17.9531 4.25242 16.6646 3.628 15.1571C3.00357 13.6497 2.8402 11.9909 3.15853 10.3905C3.47685 8.79017 4.26259 7.32016 5.41637 6.16637C6.57016 5.01259 8.04017 4.22685 9.64051 3.90853C11.2409 3.5902 12.8997 3.75357 14.4071 4.378C15.9146 5.00242 17.2031 6.05984 18.1096 7.41655C19.0161 8.77325 19.5 10.3683 19.5 12C19.5 12.4142 19.1642 12.75 18.75 12.75C18.3358 12.75 18 12.4142 18 12C18 10.665 17.6041 9.35994 16.8624 8.2499C16.1207 7.13987 15.0665 6.27471 13.8331 5.76382Z" fill="#FFB017"/>
<path fill-rule="evenodd" clip-rule="evenodd" d="M15.9697 9.96967C16.2626 9.67678 16.7374 9.67678 17.0303 9.96967L18.75 11.6893L20.4697 9.96967C20.7626 9.67678 21.2374 9.67678 21.5303 9.96967C21.8232 10.2626 21.8232 10.7374 21.5303 11.0303L19.2803 13.2803C18.9874 13.5732 18.5126 13.5732 18.2197 13.2803L15.9697 11.0303C15.6768 10.7374 15.6768 10.2626 15.9697 9.96967Z" fill="#FFB017"/>
</svg>
