<svg width="24" height="24" viewBox="0 0 24 24" fill="none" xmlns="http://www.w3.org/2000/svg">
<g clip-path="url(#clip0)">
<path fill-rule="evenodd" clip-rule="evenodd" d="M16.6178 18.0318C15.0781 19.2635 13.1251 20 11 20C6.02944 20 2 15.9706 2 11C2 6.02944 6.02944 2 11 2C15.9706 2 20 6.02944 20 11C20 13.125 19.2636 15.0779 18.032 16.6176L22.2072 20.7928L20.793 22.207L16.6178 18.0318ZM18 11C18 14.866 14.866 18 11 18C7.13401 18 4 14.866 4 11C4 7.13401 7.13401 4 11 4C14.866 4 18 7.13401 18 11Z" fill="#384156"/>
</g>
<defs>
<clipPath id="clip0">
<path d="M0 0H24V24H0V0Z" fill="white"/>
</clipPath>
</defs>
</svg>
