<?xml version="1.0" standalone="no"?>
<!DOCTYPE svg PUBLIC "-//W3C//DTD SVG 1.1//EN" "http://www.w3.org/Graphics/SVG/1.1/DTD/svg11.dtd" >
<!--
2020-5-6: Created with FontForge (http://fontforge.org)
-->
<svg xmlns="http://www.w3.org/2000/svg" xmlns:xlink="http://www.w3.org/1999/xlink" version="1.1">
<metadata>
Created by FontForge 20190801 at Wed May  6 15:25:13 2020
 By 志賀涼

</metadata>
<defs>
<font id="icons" horiz-adv-x="512" >
  <font-face 
    font-family="icons"
    font-weight="400"
    font-stretch="normal"
    units-per-em="512"
    panose-1="2 0 5 3 0 0 0 0 0 0"
    ascent="448"
    descent="-64"
    bbox="0 -64 512 448"
    underline-thickness="25.6"
    underline-position="-51.2"
    unicode-range="U+0020-F113"
  />
    <missing-glyph />
    <glyph glyph-name="space" unicode=" " horiz-adv-x="200" 
 />
    <glyph glyph-name="arrow_down" unicode="&#xf100;" 
d="M263.546 144.375l155.582 155.583l30.1689 -30.1699l-185.751 -185.752l-185.752 185.752l30.1699 30.1699z" />
    <glyph glyph-name="arrow_left" unicode="&#xf101;" 
d="M215.923 192.002l155.582 -155.582l-30.1689 -30.1689l-185.753 185.751l185.753 185.751l30.1689 -30.1699z" />
    <glyph glyph-name="arrow_right" unicode="&#xf102;" 
d="M311.166 191.998l-155.582 155.582l30.1699 30.1699l185.751 -185.752l-185.751 -185.752l-30.1699 30.1699z" />
    <glyph glyph-name="arrow_up" unicode="&#xf103;" 
d="M263.544 239.618l-155.582 -155.582l-30.1699 30.1699l185.752 185.752l185.751 -185.752l-30.1699 -30.1699z" />
    <glyph glyph-name="badge" unicode="&#xf104;" 
d="M166.233 358.386c6.10254 10.2734 19.1074 15.1621 31.168 11.7158l53.1416 -15.1836c4.95117 -1.41504 10.2354 -1.45801 15.2129 -0.124023l53.416 14.3193c12.124 3.24902 25.0352 -1.84961 30.9443 -12.2207l26.0371 -45.6982
c2.42578 -4.25684 6.13184 -7.76465 10.6631 -10.0947l48.6543 -25.0186c11.0449 -5.67773 16.2969 -17.7783 12.5938 -28.999l-16.3203 -49.4434c-1.52148 -4.60645 -1.56641 -9.52344 -0.134766 -14.1523l15.3926 -49.7012
c3.49414 -11.2783 -1.98828 -23.291 -13.1357 -28.7891l-49.1172 -24.2256c-4.57422 -2.25488 -8.34375 -5.70312 -10.8486 -9.91797l-26.8906 -45.2695c-6.10352 -10.2744 -19.1074 -15.1621 -31.168 -11.7168l-53.1436 15.1855
c-4.94922 1.41406 -10.2354 1.45508 -15.21 0.124023l-53.4189 -14.3213c-12.123 -3.24902 -25.0352 1.85156 -30.9434 12.2217l-26.0371 45.6982c-2.42578 4.25586 -6.12988 7.76367 -10.6621 10.0928l-48.6562 25.0195c-11.042 5.67871 -16.2959 17.7793 -12.5918 28.999
l16.3203 49.4443c1.51953 4.60547 1.56543 9.52246 0.131836 14.1523l-15.3896 49.7002c-3.49316 11.2783 1.9873 23.292 13.1348 28.7891l49.1172 24.2256c4.5752 2.25586 8.34473 5.70312 10.8496 9.91992zM254.449 129.852l96.9688 99.2402l-29.5957 25.0352
l-82.3535 -84.2812l-34.8818 34.8281l-29.2646 -25.3691l49.6973 -49.6211l14.8145 -14.793z" />
    <glyph glyph-name="bar" unicode="&#xf105;" 
d="M96 192v-42.667h320v42.667v42.667h-320v-42.667z" />
    <glyph glyph-name="bookmark" unicode="&#xf106;" 
d="M344.48 360.96c14.666 0 26.7998 -4.86621 36.3994 -14.5996c9.60059 -9.7334 14 -21.9336 13.2002 -36.6006v-272.8c0 -3.4668 -0.799805 -6.4668 -2.40039 -9c-1.59961 -2.5332 -3.59961 -4.7334 -6 -6.59961c-1.86621 -0.800781 -3.33301 -1.2666 -4.39941 -1.40039
c-1.06738 -0.132812 -2.5332 -0.200195 -4.40039 -0.200195c-1.59961 0 -3.2666 0.333984 -5 1c-1.7334 0.666992 -3.39941 1.5332 -5 2.60059l-109.2 78.3994l-109.199 -78.3994c-2.66699 -1.86719 -5.53418 -3.06738 -8.60059 -3.60059s-5.93359 0 -8.59961 1.60059
c-2.66699 1.86621 -4.7334 4.06641 -6.2002 6.59961s-2.2002 5.5332 -2.2002 9v272.8c0 14.667 4.86719 26.8672 14.6006 36.6006s21.9326 14.5996 36.5996 14.5996h170.4zM361.68 69.3604v240.399c0 5.33398 -1.5332 9.5332 -4.59961 12.6006
c-3.06641 3.06641 -7.2666 4.59961 -12.5996 4.59961h-170.4c-5.33301 0 -9.5332 -1.5332 -12.5996 -4.59961c-3.06738 -3.06738 -4.60059 -7.2666 -4.60059 -12.6006v-240.399l92 66.3994c1.86719 0.799805 3.66699 1.60059 5.40039 2.40039s3.39941 1.2002 5 1.2002
c1.59961 0 3.2666 -0.400391 5 -1.2002s3.5332 -1.60059 5.39941 -2.40039z" />
    <glyph glyph-name="chat" unicode="&#xf107;" 
d="M213.54 108.917c1.67285 1.69434 3.94434 2.6416 6.31055 2.62695l176.839 -1.0459c14.8203 0 26.7109 12.0469 26.7109 26.9053v180.42c0 14.8594 -11.8906 26.9062 -26.5576 26.9062h-283.27c-14.667 0 -26.5566 -12.0469 -26.5566 -26.9062v-179.995
c0.260742 -15.3301 12.3574 -27.1611 27.0215 -26.9033l34.7891 0.619141c4.94922 0.0869141 9.00684 -3.95312 9.00684 -8.96875v-50.0977zM140.13 93.4482l-25.7812 -0.456055c-24.4414 -0.435547 -44.6016 19.2871 -45.0293 44.0508
c-0.00390625 0.260742 -0.00585938 60.5205 -0.00683594 180.78c0 24.7666 19.8164 44.8438 44.2607 44.8438h283.27c24.4453 0 44.2627 -20.0771 44.2627 -44.8438v-180.42c0 -24.7656 -19.8174 -44.8418 -44.2627 -44.8418
c-0.0849609 0 -57.8857 0.34082 -173.397 1.02344l-68.2041 -69.1006c-5.57617 -5.64941 -15.1113 -1.64941 -15.1113 6.34277v62.6211zM166.696 237.104c-4.88965 0 -8.85254 4.01562 -8.85254 8.96875s3.96289 8.96875 8.85254 8.96875h159.339
c4.88965 0 8.85156 -4.01562 8.85156 -8.96875s-3.96191 -8.96875 -8.85156 -8.96875h-159.339zM166.696 183.292c-4.88965 0 -8.85254 4.0166 -8.85254 8.96875c0 4.95312 3.96289 8.96777 8.85254 8.96777h123.93c4.88965 0 8.85352 -4.01465 8.85352 -8.96777
c0 -4.95215 -3.96387 -8.96875 -8.85352 -8.96875h-123.93z" />
    <glyph glyph-name="checkbox" unicode="&#xf108;" 
d="M384 426.667h-256c-58.9102 0 -106.667 -47.7568 -106.667 -106.667v-256c0 -58.9102 47.7568 -106.667 106.667 -106.667h256c58.9102 0 106.667 47.7568 106.667 106.667v256c0 58.9102 -47.7568 106.667 -106.667 106.667zM128 448h256
c70.6924 0 128 -57.3076 128 -128v-256c0 -70.6924 -57.3076 -128 -128 -128h-256c-70.6924 0 -128 57.3076 -128 128v256c0 70.6924 57.3076 128 128 128zM351.42 229.09l-111.586 -114.201l-64.5107 64.4141l29.2637 25.3691l34.8838 -34.8291l82.3516 84.2822z" />
    <glyph glyph-name="close" unicode="&#xf109;" 
d="M254.651 217.489l138.782 138.781l24.1367 -24.1357l-138.782 -138.78l138.782 -138.781l-24.1367 -24.1367l-138.782 138.781l-138.781 -138.781l-24.1357 24.1367l138.781 138.781l-138.781 138.78l24.1367 24.1357z" />
    <glyph glyph-name="contents" unicode="&#xf10a;" 
d="M85.333 224c17.707 0 32 -14.293 32 -32s-14.293 -32 -32 -32c-17.7061 0 -32 14.293 -32 32s14.2939 32 32 32zM85.333 352c17.707 0 32 -14.293 32 -32s-14.293 -32 -32 -32c-17.7061 0 -32 14.293 -32 32s14.2939 32 32 32zM85.333 96c17.8135 0 32 -14.4004 32 -32
s-14.3994 -32 -32 -32c-17.5996 0 -32 14.4004 -32 32s14.1865 32 32 32zM149.333 42.667v42.666h298.667v-42.666h-298.667zM149.333 170.667v42.666h298.667v-42.666h-298.667zM149.333 341.333h298.667v-42.666h-298.667v42.666z" />
    <glyph glyph-name="help" unicode="&#xf10b;" 
d="M0 192c0 141.385 114.615 256 256 256s256 -114.615 256 -256s-114.615 -256 -256 -256s-256 114.615 -256 256zM235.82 156.122h38.5283v8.66113c0 4.18066 0.49707 7.66699 1.49316 10.4531c1.19531 2.78809 3.38379 5.6748 6.57129 8.66113
c3.18457 2.98633 7.66504 6.57129 13.4395 10.752c7.76562 5.77539 14.2363 11.1514 19.4141 16.1279c5.1748 5.17773 9.05762 10.752 11.6475 16.7256c2.58789 5.97363 3.88281 13.042 3.88281 21.2061c0 15.332 -5.77539 27.9746 -17.3223 37.9307
c-11.3496 9.95508 -27.3799 14.9336 -48.0859 14.9336c-13.54 0 -25.9834 -1.69238 -37.333 -5.07812c-11.3496 -3.38477 -21.9033 -7.76465 -31.6602 -13.1406l15.8291 -31.958c8.5625 4.38086 16.9248 7.86523 25.0898 10.4541
c8.16211 2.58789 16.4268 3.88184 24.7891 3.88184s14.833 -1.69141 19.4131 -5.07715c4.7793 -3.18555 7.16797 -7.96387 7.16797 -14.3359c0 -6.37109 -1.99219 -11.9473 -5.97266 -16.7256c-3.78516 -4.57812 -10.1553 -10.0547 -19.1152 -16.4268
c-10.1543 -7.36621 -17.3223 -14.4346 -21.5039 -21.2051c-4.18164 -6.76953 -6.27246 -15.1318 -6.27246 -25.0879v-10.752zM231.042 106.244c0 -8.75977 2.4873 -15.1318 7.4668 -19.1143c4.97754 -3.78223 11.0508 -5.6748 18.2188 -5.6748
c6.96777 0 12.9404 1.89258 17.9199 5.6748c4.97754 3.98242 7.4668 10.3545 7.4668 19.1143c0 9.16113 -2.48926 15.5312 -7.4668 19.1152c-4.97949 3.78418 -10.9521 5.67383 -17.9199 5.67383c-7.16797 0 -13.2412 -1.88965 -18.2188 -5.67383
c-4.97949 -3.58398 -7.4668 -9.9541 -7.4668 -19.1152z" />
    <glyph glyph-name="home" unicode="&#xf10c;" 
d="M421.84 258.24c2.40039 -1.86719 4.13379 -4 5.2002 -6.40039c1.06641 -2.39941 1.59961 -4.7998 1.59961 -7.2002v-188c0 -14.3994 -4.93262 -26.5332 -14.7998 -36.3994c-9.86621 -9.86719 -22 -14.7998 -36.3994 -14.7998h-239.2
c-14.4004 0 -26.5332 4.93262 -36.4004 14.7998c-9.86621 9.86621 -14.7998 22 -14.7998 36.3994v188c0 2.40039 0.533203 4.80078 1.59961 7.2002c1.06738 2.40039 2.80078 4.5332 5.2002 6.40039l153.601 119.2c2.66602 2.66602 5.93262 4 9.7998 4
c3.86621 0 7.5332 -1.33398 11 -4zM291.84 39.8398v136.4h-68v-136.4h68zM394.24 56.6396v179.2l-136.4 106l-136.399 -106v-179.2c0 -5.06641 1.5332 -9.13281 4.59961 -12.1992c3.06641 -3.06738 7.13281 -4.60059 12.2002 -4.60059h51.2002v153.601
c0 5.06641 1.59961 9.13281 4.7998 12.1992c3.2002 3.06738 7.33301 4.60059 12.3994 4.60059h102.4c5.06641 0 9.2002 -1.5332 12.4004 -4.60059c3.19922 -3.06641 4.7998 -7.13281 4.7998 -12.1992v-153.601h51.2002c5.06641 0 9.13281 1.5332 12.1992 4.60059
c3.06738 3.06641 4.60059 7.13281 4.60059 12.1992z" />
    <glyph glyph-name="menu" unicode="&#xf10d;" 
d="M426.667 298.667h-341.334v42.666h341.334v-42.666zM426.667 170.667h-341.334v42.666h341.334v-42.666zM85.333 42.667v42.666h341.334v-42.666h-341.334z" />
    <glyph glyph-name="more" unicode="&#xf10e;" 
d="M85.333 149.333c-23.5635 0 -42.666 19.1025 -42.666 42.667s19.1025 42.667 42.666 42.667c23.5645 0 42.667 -19.1025 42.667 -42.667s-19.1025 -42.667 -42.667 -42.667zM298.667 192c0 -23.5645 -19.1025 -42.667 -42.667 -42.667s-42.667 19.1025 -42.667 42.667
s19.1025 42.667 42.667 42.667s42.667 -19.1025 42.667 -42.667zM469.333 192c0 -23.5645 -19.1016 -42.667 -42.666 -42.667c-23.5654 0 -42.667 19.1025 -42.667 42.667s19.1016 42.667 42.667 42.667c23.5645 0 42.666 -19.1025 42.666 -42.667z" />
    <glyph glyph-name="profile_man" unicode="&#xf10f;" 
d="M0 192c0 141.385 114.615 256 256 256s256 -114.615 256 -256s-114.615 -256 -256 -256s-256 114.615 -256 256zM89.1357 27.1338c-2.35645 -1.39746 -3.80078 -3.93359 -3.80176 -6.6709c-0.0224609 -1.38672 0.325195 -2.75195 1.00879 -3.95703
c1.41113 -2.38086 3.98242 -3.83008 6.74902 -3.80176c1.35938 -0.00878906 2.69727 0.338867 3.87891 1.00879v0c36.1357 21.1797 76.1523 34.8955 117.684 40.3398c3.22559 0.447266 5.83008 2.86426 6.51465 6.0498c1.62988 7.75879 2.94824 15.5156 4.03418 23.2725
c9.91113 -3.85059 20.4033 -6.00098 31.0312 -6.35938c10.626 0.358398 21.1182 2.50879 31.0293 6.35938c1.08594 -7.75684 2.32812 -15.5137 3.95801 -23.2725c0.695312 -3.20898 3.33594 -5.63184 6.5918 -6.0498c41.5254 -5.46777 81.5361 -19.1836 117.683 -40.3398
c3.59961 -2.3252 8.40137 -1.29297 10.7266 2.30664c0.102539 0.157227 0.198242 0.319336 0.290039 0.486328c0.710938 1.19629 1.08594 2.56445 1.08594 3.95703v-0.00195312c-0.0166016 2.75586 -1.49316 5.29492 -3.87793 6.67285
c-36.2881 21.25 -76.3184 35.3389 -117.916 41.502c-1.39746 6.98242 -2.4043 14.1182 -3.33594 21.1797c25.5996 13.1865 49.3389 36.3818 51.5107 68.4199c22.4492 12.5254 30.4961 40.875 17.9736 63.3242c-0.245117 0.4375 -0.495117 0.870117 -0.750977 1.29688
c-0.543945 0.932617 -1.16504 1.78613 -1.78516 2.71582v0c1.1582 3.89941 2.08984 7.86328 2.79199 11.8691v0c1.45508 7.38672 2.2334 14.8906 2.32715 22.4189v0.00195312c0.141602 65.208 -52.6055 118.185 -117.815 118.325
c-1.71484 0.00390625 -3.42969 -0.0302734 -5.14355 -0.101562c-30.6191 -1.16406 -59.5703 -14.248 -80.6777 -36.46c-29.5225 -30.9688 -40.0234 -75.4639 -27.4619 -116.363c-14.7266 -21.0703 -9.58496 -50.0908 11.4854 -64.8164
c1.2998 -0.907227 2.64453 -1.75 4.0293 -2.51953c2.17188 -32.0391 25.833 -55.2344 51.4336 -68.4229c-0.853516 -7.05957 -1.93945 -14.1953 -3.25879 -21.1777c-41.5977 -6.08008 -81.6484 -20.0615 -117.991 -41.1924v0zM182.227 330.843v0
c18.2695 19.2402 43.3076 30.6191 69.8184 31.7285v0c14.1934 0.55957 28.3477 -1.81738 41.5811 -6.98242c39.5732 -15.2178 65.6084 -53.3291 65.3945 -95.7285v-0.000976562c0.00878906 -6.61621 -0.639648 -13.2168 -1.93848 -19.7041v0
c-0.81543 -4.03613 -1.85254 -8.02539 -3.10254 -11.9463v0c-6.61719 1.4209 -13.1045 3.3916 -19.3936 5.89453c-5.13086 2.0166 -10.1104 4.40234 -14.8955 7.1377v0c-13.4971 7.64355 -25.4229 17.7783 -35.1426 29.8662
c-2.6875 3.33691 -7.57031 3.8623 -10.9072 1.1748c-2.24219 -1.80762 -3.30078 -4.70898 -2.74609 -7.53516v0c1.82617 -9.05176 4.58301 -17.8896 8.22461 -26.375l1.62793 -3.64551v0c-14.3496 2.92773 -28.0469 8.44824 -40.416 16.291v0
c-11.1494 7.06543 -21.1016 15.8643 -29.4795 26.0645c-2.55566 3.11816 -7.07324 3.75879 -10.3945 1.47461c-14.1641 -9.75781 -25.7236 -22.835 -33.668 -38.0898c-2.55371 -5.00293 -4.73145 -10.1885 -6.5166 -15.5156l-0.464844 1.31836
c-3.84668 10.7871 -5.86523 22.1396 -5.97363 33.5908v0.000976562c-0.124023 26.4365 10.0293 51.8877 28.3154 70.9814h0.0771484zM174.469 161.728c0.588867 3.49316 -1.2627 6.94043 -4.49902 8.37793c-11.6055 4.84082 -19.1416 16.207 -19.084 28.7812v0
c0.0322266 2.43164 0.344727 4.85254 0.930664 7.21484c1.47461 -2.87207 2.94824 -5.74121 4.65527 -8.45703c1.41992 -2.27148 3.91309 -3.65234 6.59375 -3.64551h1.78418c3.25293 0.75293 5.6582 3.50293 5.97363 6.82617
c1.08301 11.2793 4.34961 22.2402 9.61914 32.2715v0c5.73145 10.958 13.6523 20.6221 23.2725 28.3926c23.5645 -25.8105 56.0742 -41.6768 90.9199 -44.373v0c4.28125 -0.128906 7.85742 3.23828 7.9873 7.52148c0.0449219 1.47266 -0.333008 2.92676 -1.08398 4.19238
c-1.8623 3.10352 -3.56934 6.28418 -5.19629 9.54199v0c4.9209 -3.84668 10.1055 -7.34668 15.5127 -10.4727c5.44238 -2.93945 11.0635 -5.53125 16.835 -7.75684v0c7.22266 -2.8584 14.6709 -5.11523 22.2656 -6.74902l6.74707 -1.24219h1.47461
c1.94336 -4.04297 2.9502 -8.46875 2.94824 -12.9561v0c0.0449219 -12.5928 -7.52637 -23.9629 -19.1621 -28.7803c-3.23633 -1.4375 -5.08789 -4.88574 -4.49902 -8.37793c-1.00879 -42.2012 -54.3037 -69.1201 -82.2295 -69.1201
c-24.2041 -0.308594 -81.0674 23.1963 -82.0762 68.8105h0.310547z" />
    <glyph glyph-name="profile_woman" unicode="&#xf110;" 
d="M0 192c0 141.385 114.615 256 256 256s256 -114.615 256 -256s-114.615 -256 -256 -256s-256 114.615 -256 256zM165.152 347.659v0c-24.7402 -18.2412 -40.252 -46.3994 -42.4512 -77.0576c-0.490234 -40.5596 -14.0107 -146.058 -44.7637 -166.724
c-1.88965 -1.27539 -3.04004 -3.39355 -3.08203 -5.67383c-0.0449219 -2.25293 0.998047 -4.39062 2.80176 -5.74316c9.47559 -6.11621 19.9951 -10.4385 31.0332 -12.751c1.78418 -0.441406 3.67188 -0.164062 5.25391 0.772461
c8.69434 4.97852 16.9443 10.6982 24.6582 17.0918v0c-1.18652 -6.39551 -2.99316 -12.6592 -5.39355 -18.7051c-0.908203 -1.90527 -0.908203 -4.11719 0 -6.02441c0.930664 -1.87695 2.65234 -3.23828 4.69336 -3.71191
c1.96094 -0.561523 11.0684 -5.25488 17.7227 -8.61621l6.23438 -3.22168c-24.4678 -7.39844 -47.9795 -17.6494 -70.0508 -30.543c-2.15527 -1.24414 -3.48828 -3.53711 -3.50293 -6.02441c-0.0214844 -1.26074 0.318359 -2.5 0.980469 -3.57324
c1.26172 -2.12695 3.55176 -3.43262 6.02441 -3.43262c1.22754 -0.00878906 2.43555 0.304688 3.50293 0.911133v0c36.0293 21.1152 75.9287 34.7881 117.336 40.209c2.94141 0.376953 5.32715 2.56641 5.9541 5.46582v0c1.75391 10.9502 2.9248 21.9883 3.50293 33.0645
v4.13184c9.81152 -4.63574 20.5332 -7.0293 31.3838 -7.00586c10.8301 0.0644531 21.5508 2.18066 31.5947 6.23535c1.26074 -12.3281 2.94141 -28.0205 4.69336 -36.1465c0.626953 -2.89746 3.01172 -5.08594 5.9541 -5.46387
c41.668 -5.41602 81.8154 -19.1895 118.037 -40.4902c1.06641 -0.606445 2.27441 -0.919922 3.50293 -0.911133c2.47266 0 4.76172 1.30566 6.02441 3.43262c0.661133 1.07324 1 2.3125 0.979492 3.57324v0c-0.015625 2.4873 -1.34863 4.78027 -3.50293 6.02441
c-14.5479 8.47754 -29.7236 15.8311 -45.3936 21.9971c8.12598 12.8193 22.0674 21.0156 40.4199 31.5215c5.6748 3.29199 11.6289 7.00586 17.9336 10.6475v0c1.7832 1.08594 2.99023 2.9082 3.29395 4.97559c0.189453 2.22949 -0.696289 4.41602 -2.38379 5.88379
c-32.0127 28.4414 -33.3438 72.9238 -35.374 120.209v-0.00195312c-0.388672 20.8174 -2.04883 41.5918 -4.97559 62.2061c-4.97266 31.8037 -24.5869 58.4229 -56.6016 77.0566v0c-22.0967 12.7061 -46.6943 20.4512 -72.083 22.6992
c-24.1045 0.916016 -47.1787 -9.82617 -61.9961 -28.8623c-14.3877 4.0498 -29.8359 1.31543 -41.9609 -7.4248v0zM166.623 224.088c7.51855 13.1094 17.6816 24.5127 29.8428 33.4844c10.4141 -11.1445 22.3457 -20.7666 35.4463 -28.5801
c22.7568 -13.6494 48.3633 -21.8496 74.8145 -23.96h0.490234c2.47266 0.00195312 4.76367 1.30566 6.02441 3.43262c1.3916 2.25488 1.3916 5.10059 0 7.35547c-3.74121 5.8418 -7.04395 11.9531 -9.87695 18.2852
c-0.205078 0.354492 -0.369141 0.729492 -0.490234 1.12012v0c8.25586 -6.82617 17.1729 -12.8105 26.6191 -17.8623v0c6.23633 -3.31055 12.6699 -6.23535 19.2646 -8.75781c-1.68164 -38.0371 -23.8877 -78.1777 -56.5312 -95.4795
c-10.6006 -5.77246 -22.4668 -8.8291 -34.5352 -8.89746c-48.6865 0 -90.4375 65.5703 -91.0684 119.859v0zM207.043 340.023c3.1543 -1.3125 6.79395 -0.158203 8.61523 2.73145v0c11.7979 17.4639 31.6826 27.709 52.751 27.1807
c33.4854 -1.82129 105.988 -25.709 115.726 -87.915v0c2.7666 -20.1562 4.30859 -40.4619 4.62305 -60.8047c1.75098 -46.8652 3.29102 -91.0674 33.3438 -123.082l-9.80762 -5.74316c-20.5244 -11.8398 -36.9873 -21.5068 -46.7236 -38.7393
c-19.123 6.58105 -38.8252 11.3428 -58.8438 14.2207c-1.46973 9.17773 -2.87207 23.0459 -3.92383 32.7852v2.31055c34.9316 22.0645 57.1377 59.5664 59.6846 100.804c4.625 -1.33105 9.24805 -2.52148 14.0117 -3.43262
c0.462891 -0.0683594 0.936523 -0.0683594 1.39941 0c3.87012 -0.385742 7.31934 2.43652 7.70605 6.30664c0.387695 3.86719 -2.43457 7.31738 -6.30469 7.70508v0c-8.33887 1.61523 -16.5176 3.95801 -24.4473 7.00391v0
c-6.30664 2.37207 -12.4395 5.18164 -18.3535 8.40723c-16.5498 8.8418 -31.2852 20.7246 -43.4326 35.0264c-2.07324 2.43359 -5.53125 3.1543 -8.40527 1.75098c-2.90137 -1.41211 -4.46289 -4.62207 -3.78223 -7.77637
c2.26562 -10.4785 5.62305 -20.6914 10.0156 -30.4727c1.19043 -2.5918 2.45117 -5.18359 3.7832 -7.70508v0c-19.5137 3.11621 -38.251 9.94043 -55.2002 20.1045c-13.6836 8.21484 -25.959 18.5742 -36.3574 30.6826v0
c-2.30469 2.67188 -6.23633 3.21191 -9.17676 1.26172c-16.8711 -11.0068 -30.7764 -25.9941 -40.4893 -43.6416c-0.556641 -1.08203 -0.822266 -2.28906 -0.771484 -3.50293v-0.491211c0 -44.3428 24.5889 -95.3408 60.3154 -120.068
c0 -3.15234 -0.560547 -7.00586 -0.84082 -10.8584c-0.700195 -8.75684 -1.4707 -19.1934 -2.45215 -26.4102c-8.96582 -1.3291 -17.793 -3.08105 -26.5498 -5.11426c-2.38086 0.702148 -13.3799 6.30664 -20.665 10.0186
c-6.16406 3.15332 -10.4375 5.32422 -13.5195 7.00586v0c4.03027 14.1162 6.84277 28.5527 8.40625 43.1504c0.541016 3.87012 -2.15625 7.44531 -6.02441 7.9873c-3.86914 0.540039 -7.44434 -2.15625 -7.98633 -6.02441
c-1.26074 -7.49609 -18.0732 -21.6465 -33.9053 -31.2441v0c-5.30469 1.42871 -10.502 3.23145 -15.5508 5.39453c33.6943 36.8477 42.5205 144.307 42.8711 170.996v0c1.99414 26.1533 15.167 50.1768 36.1465 65.9189v0c9.84277 7.29199 22.7793 8.91211 34.1152 4.27344
v0z" />
    <glyph glyph-name="refresh" unicode="&#xf111;" 
d="M295.106 325.038c-26.3125 10.8994 -55.2666 13.751 -83.1992 8.19531c-27.9336 -5.55664 -53.5918 -19.2715 -73.7305 -39.4102s-33.8535 -45.7969 -39.4102 -73.7295c-5.55566 -27.9336 -2.7041 -56.8877 8.19531 -83.2002
c10.8984 -26.3125 29.3555 -48.8018 53.0361 -64.625c23.6807 -15.8223 51.5215 -24.2686 80.002 -24.2686c8.83594 0 16 -7.16406 16 -16s-7.16406 -16 -16 -16c-34.8096 0 -68.8369 10.3232 -97.7803 29.6621s-51.501 46.8262 -64.8223 78.9863
c-13.3213 32.1582 -16.8066 67.5459 -10.0156 101.688c6.79102 34.1406 23.5537 65.501 48.167 90.1152c24.6143 24.6133 55.9746 41.376 90.1152 48.167c34.1416 6.79102 69.5293 3.30566 101.688 -10.0156c32.1602 -13.3213 59.6475 -35.8789 78.9863 -64.8223
s29.6621 -62.9707 29.6621 -97.7803c0 -8.83594 -7.16406 -16 -16 -16s-16 7.16406 -16 16c0 28.4805 -8.44629 56.3213 -24.2686 80.002c-15.8232 23.6807 -38.3125 42.1377 -64.625 53.0361zM340.687 235.313c6.24902 6.24902 16.3779 6.24902 22.627 0l36.6865 -36.6855
l36.6865 36.6855c6.24902 6.24902 16.3779 6.24902 22.627 0c6.24805 -6.24902 6.24805 -16.3779 0 -22.627l-48 -48c-6.24902 -6.24805 -16.3779 -6.24805 -22.627 0l-48 48c-6.24805 6.24902 -6.24805 16.3779 0 22.627z" />
    <glyph glyph-name="search" unicode="&#xf112;" 
d="M354.513 63.3213c-32.8467 -26.2764 -74.5107 -41.9883 -119.846 -41.9883c-106.039 0 -192 85.9609 -192 192s85.9609 192 192 192s192 -85.9609 192 -192c0 -45.333 -15.71 -86.9951 -41.9844 -119.842l89.0713 -89.0713l-30.1699 -30.1689zM384 213.333
c0 82.4746 -66.8584 149.334 -149.333 149.334s-149.334 -66.8594 -149.334 -149.334s66.8594 -149.333 149.334 -149.333s149.333 66.8584 149.333 149.333z" />
    <glyph glyph-name="star" unicode="&#xf113;" 
d="M256 49.4697l-158.208 -92.1367l41.9844 173.653l-139.776 116.84l184.064 15.0684l71.9355 163.772l71.9355 -163.772l184.064 -15.0684l-139.776 -116.84l41.9844 -173.653z" />
  </font>
</defs>
</svg>
